<?xml version="1.0" standalone="no"?><!-- Generator: Gravit.io --><svg xmlns="http://www.w3.org/2000/svg" xmlns:xlink="http://www.w3.org/1999/xlink" style="isolation:isolate" viewBox="284.602 276.965 118.436 115.512" width="118.436" height="115.512"><path d=" M 343.82 276.965 C 311.119 276.965 284.602 303.477 284.602 336.183 C 284.602 362.347 301.57 384.545 325.099 392.376 C 328.058 392.924 329.145 391.091 329.145 389.527 C 329.145 388.115 329.09 383.45 329.065 378.501 C 312.59 382.084 309.114 371.514 309.114 371.514 C 306.42 364.67 302.538 362.85 302.538 362.85 C 297.165 359.174 302.943 359.25 302.943 359.25 C 308.89 359.666 312.021 365.352 312.021 365.352 C 317.303 374.405 325.875 371.788 329.254 370.275 C 329.785 366.448 331.32 363.834 333.014 362.356 C 319.86 360.859 306.033 355.781 306.033 333.09 C 306.033 326.625 308.347 321.342 312.135 317.195 C 311.52 315.702 309.493 309.68 312.709 301.523 C 312.709 301.523 317.681 299.932 328.998 307.594 C 333.722 306.281 338.788 305.623 343.82 305.601 C 348.853 305.623 353.923 306.281 358.655 307.594 C 369.958 299.932 374.924 301.523 374.924 301.523 C 378.147 309.68 376.12 315.702 375.505 317.195 C 379.302 321.342 381.599 326.625 381.599 333.09 C 381.599 355.835 367.746 360.843 354.559 362.309 C 356.683 364.147 358.576 367.751 358.576 373.276 C 358.576 381.198 358.507 387.575 358.507 389.527 C 358.507 391.103 359.573 392.949 362.575 392.368 C 386.092 384.528 403.038 362.339 403.038 336.183 C 403.038 303.477 376.525 276.965 343.82 276.965 Z " fill-rule="evenodd" fill="rgb(254,254,254)"/></svg>